<svg width="14" height="14" viewBox="0 0 14 14" fill="none" xmlns="http://www.w3.org/2000/svg">
<path d="M5.25 1.16666C3.72166 1.16666 2.47916 2.40916 2.47916 3.93749C2.47916 5.43666 3.65166 6.64999 5.18 6.70249C5.22666 6.69666 5.27333 6.69666 5.30833 6.70249C5.32 6.70249 5.32583 6.70249 5.3375 6.70249C5.34333 6.70249 5.34333 6.70249 5.34916 6.70249C6.8425 6.64999 8.015 5.43666 8.02083 3.93749C8.02083 2.40916 6.77833 1.16666 5.25 1.16666Z" fill="white"/>
<path d="M8.21333 8.25418C6.58583 7.16918 3.93167 7.16918 2.2925 8.25418C1.55167 8.75001 1.14333 9.42085 1.14333 10.1383C1.14333 10.8558 1.55167 11.5208 2.28667 12.0108C3.10333 12.5592 4.17667 12.8333 5.25 12.8333C6.32333 12.8333 7.39667 12.5592 8.21333 12.0108C8.94833 11.515 9.35667 10.85 9.35667 10.1267C9.35083 9.40918 8.94833 8.74418 8.21333 8.25418Z" fill="white"/>
<path d="M11.6608 4.28165C11.7542 5.41332 10.9492 6.40499 9.835 6.53915C9.82917 6.53915 9.82917 6.53915 9.82334 6.53915H9.80584C9.77083 6.53915 9.73583 6.53915 9.70667 6.55082C9.14083 6.57999 8.62167 6.39915 8.23083 6.06665C8.83167 5.52999 9.17584 4.72499 9.10584 3.84999C9.065 3.37749 8.90167 2.94582 8.65667 2.57832C8.87834 2.46749 9.135 2.39749 9.3975 2.37415C10.5408 2.27499 11.5617 3.12665 11.6608 4.28165Z" fill="white"/>
<path d="M12.8275 9.67751C12.7808 10.2433 12.4192 10.7333 11.8125 11.0658C11.2292 11.3867 10.4942 11.5383 9.765 11.5208C10.185 11.1417 10.43 10.6692 10.4767 10.1675C10.535 9.44417 10.1908 8.75001 9.5025 8.19584C9.11167 7.88667 8.65667 7.64167 8.16084 7.46084C9.45 7.08751 11.0717 7.33834 12.0692 8.14334C12.6058 8.57501 12.88 9.11751 12.8275 9.67751Z" fill="white"/>
</svg>
