<svg width="18" height="18" viewBox="0 0 18 18" fill="none" xmlns="http://www.w3.org/2000/svg">
<path d="M12.75 13.8225H9.75L6.41249 16.0425C5.91749 16.3725 5.25 16.02 5.25 15.42V13.8225C3 13.8225 1.5 12.3225 1.5 10.0725V5.57249C1.5 3.32249 3 1.82249 5.25 1.82249H12.75C15 1.82249 16.5 3.32249 16.5 5.57249V10.0725C16.5 12.3225 15 13.8225 12.75 13.8225Z" stroke="#7D23E0" stroke-miterlimit="10" stroke-linecap="round" stroke-linejoin="round"/>
<path d="M8.99998 8.51999V8.36252C8.99998 7.85252 9.315 7.58251 9.63 7.36501C9.9375 7.15501 10.245 6.88501 10.245 6.39001C10.245 5.70001 9.68998 5.14499 8.99998 5.14499C8.30998 5.14499 7.755 5.70001 7.755 6.39001" stroke="#7D23E0" stroke-linecap="round" stroke-linejoin="round"/>
<path d="M8.99662 10.3125H9.00337" stroke="#7D23E0" stroke-linecap="round" stroke-linejoin="round"/>
</svg>
